<mxfile host="app.diagrams.net" modified="2023-08-29T22:35:59.942Z" agent="Mozilla/5.0 (Windows NT 10.0; Win64; x64) AppleWebKit/537.36 (KHTML, like Gecko) Chrome/116.0.0.0 Safari/537.36" etag="jWCS6aot72166YwVKlsY" version="21.7.0" type="google">
  <diagram name="PÃ¡gina-1" id="55NXGsGEGodfM5RHdOor">
    <mxGraphModel dx="1674" dy="758" grid="1" gridSize="10" guides="1" tooltips="1" connect="1" arrows="1" fold="1" page="1" pageScale="1" pageWidth="827" pageHeight="1169" math="0" shadow="0">
      <root>
        <mxCell id="0" />
        <mxCell id="1" parent="0" />
        <mxCell id="gYuFQbLw6EWlEDk_4e0a-1" value="&lt;p style=&quot;margin:0px;margin-top:4px;text-align:center;&quot;&gt;&lt;i&gt;&amp;lt;&amp;lt;Interface&amp;gt;&amp;gt;&lt;/i&gt;&lt;/p&gt;&lt;p style=&quot;margin:0px;margin-top:4px;text-align:center;&quot;&gt;&lt;b&gt;Inventario&lt;/b&gt;&lt;br&gt;&lt;/p&gt;&lt;hr size=&quot;1&quot;&gt;&lt;p style=&quot;margin:0px;margin-left:4px;&quot;&gt;&amp;nbsp;cargarProducto(): void;&lt;br&gt;&amp;nbsp;eliminarProducto(): void;&lt;/p&gt;&amp;nbsp; mostrarInventario(): void;&lt;br&gt;&amp;nbsp; venderProducto(): void;&lt;br&gt;&lt;p style=&quot;margin:0px;margin-left:4px;&quot;&gt;&amp;nbsp;mostrarVentas(): void;&lt;br&gt;&lt;/p&gt;" style="verticalAlign=top;align=left;overflow=fill;fontSize=12;fontFamily=Helvetica;html=1;whiteSpace=wrap;" parent="1" vertex="1">
          <mxGeometry x="320" y="20" width="200" height="140" as="geometry" />
        </mxCell>
        <mxCell id="gYuFQbLw6EWlEDk_4e0a-2" value="Class: Kiosco" style="swimlane;fontStyle=1;align=center;verticalAlign=top;childLayout=stackLayout;horizontal=1;startSize=26;horizontalStack=0;resizeParent=1;resizeParentMax=0;resizeLast=0;collapsible=1;marginBottom=0;whiteSpace=wrap;html=1;" parent="1" vertex="1">
          <mxGeometry x="80" y="160" width="200" height="192" as="geometry" />
        </mxCell>
        <mxCell id="gYuFQbLw6EWlEDk_4e0a-3" value="- productosDisponibles: Producto;&lt;br&gt;- productosVendidos:Producto" style="text;strokeColor=none;fillColor=none;align=left;verticalAlign=top;spacingLeft=4;spacingRight=4;overflow=hidden;rotatable=0;points=[[0,0.5],[1,0.5]];portConstraint=eastwest;whiteSpace=wrap;html=1;" parent="gYuFQbLw6EWlEDk_4e0a-2" vertex="1">
          <mxGeometry y="26" width="200" height="56" as="geometry" />
        </mxCell>
        <mxCell id="gYuFQbLw6EWlEDk_4e0a-4" value="" style="line;strokeWidth=1;fillColor=none;align=left;verticalAlign=middle;spacingTop=-1;spacingLeft=3;spacingRight=3;rotatable=0;labelPosition=right;points=[];portConstraint=eastwest;strokeColor=inherit;" parent="gYuFQbLw6EWlEDk_4e0a-2" vertex="1">
          <mxGeometry y="82" width="200" height="8" as="geometry" />
        </mxCell>
        <mxCell id="gYuFQbLw6EWlEDk_4e0a-5" value="+ cargarProducto;&lt;br&gt;+ eliminarProducto;&lt;br&gt;+ mostrarInventario;&lt;br&gt;+ venderProducto;&lt;br&gt;+ mostrarVentas;&lt;br&gt;+ cargarDesdeArreglo;" style="text;strokeColor=none;fillColor=none;align=left;verticalAlign=top;spacingLeft=4;spacingRight=4;overflow=hidden;rotatable=0;points=[[0,0.5],[1,0.5]];portConstraint=eastwest;whiteSpace=wrap;html=1;" parent="gYuFQbLw6EWlEDk_4e0a-2" vertex="1">
          <mxGeometry y="90" width="200" height="102" as="geometry" />
        </mxCell>
        <mxCell id="uX_9rLLdU68cVupdmD__-1" value="&lt;p style=&quot;margin:0px;margin-top:4px;text-align:center;&quot;&gt;&lt;b&gt;Class: Producto&lt;/b&gt;&lt;/p&gt;&lt;hr size=&quot;1&quot;&gt;&lt;p style=&quot;margin:0px;margin-left:4px;&quot;&gt;- nombre: string;&lt;/p&gt;&lt;p style=&quot;margin:0px;margin-left:4px;&quot;&gt;- precio: number;&lt;/p&gt;&lt;p style=&quot;border-color: var(--border-color); margin: 0px 0px 0px 4px;&quot;&gt;- stock: number;&lt;/p&gt;&lt;p style=&quot;border-color: var(--border-color); margin: 0px 0px 0px 4px;&quot;&gt;- codigo: string;&lt;/p&gt;&lt;hr size=&quot;1&quot;&gt;&lt;p style=&quot;margin:0px;margin-left:4px;&quot;&gt;+ getNombre;&lt;/p&gt;&amp;nbsp;+ getPrecio;&lt;br&gt;&amp;nbsp;+ getStock;&lt;br&gt;&amp;nbsp;+ reducirStock;&lt;br&gt;&lt;span style=&quot;background-color: initial;&quot;&gt;&amp;nbsp;+ getCodigo;&lt;/span&gt;" style="verticalAlign=top;align=left;overflow=fill;fontSize=12;fontFamily=Helvetica;html=1;whiteSpace=wrap;" parent="1" vertex="1">
          <mxGeometry x="560" y="160" width="250" height="180" as="geometry" />
        </mxCell>
        <mxCell id="uX_9rLLdU68cVupdmD__-3" value="" style="endArrow=block;dashed=1;endFill=0;endSize=12;html=1;rounded=0;exitX=0;exitY=0.436;exitDx=0;exitDy=0;exitPerimeter=0;entryX=0.4;entryY=0.004;entryDx=0;entryDy=0;entryPerimeter=0;" parent="1" source="gYuFQbLw6EWlEDk_4e0a-1" target="gYuFQbLw6EWlEDk_4e0a-2" edge="1">
          <mxGeometry width="160" relative="1" as="geometry">
            <mxPoint x="330" y="390" as="sourcePoint" />
            <mxPoint x="490" y="390" as="targetPoint" />
            <Array as="points">
              <mxPoint x="160" y="80" />
            </Array>
          </mxGeometry>
        </mxCell>
        <mxCell id="uX_9rLLdU68cVupdmD__-4" value="Use" style="endArrow=open;endSize=12;dashed=1;html=1;rounded=0;" parent="1" target="uX_9rLLdU68cVupdmD__-1" edge="1">
          <mxGeometry width="160" relative="1" as="geometry">
            <mxPoint x="280" y="250" as="sourcePoint" />
            <mxPoint x="490" y="260" as="targetPoint" />
          </mxGeometry>
        </mxCell>
      </root>
    </mxGraphModel>
  </diagram>
</mxfile>
